<?xml version="1.0" standalone="no"?>
<!DOCTYPE svg PUBLIC "-//W3C//DTD SVG 20010904//EN"
 "http://www.w3.org/TR/2001/REC-SVG-20010904/DTD/svg10.dtd">
<svg version="1.0" xmlns="http://www.w3.org/2000/svg"
 width="149.000000pt" height="149.000000pt" viewBox="0 0 149.000000 149.000000"
 preserveAspectRatio="xMidYMid meet">

<g transform="translate(0.000000,149.000000) scale(0.100000,-0.100000)"
fill="#000000" stroke="none">
<path d="M594 1409 c-26 -13 -54 -60 -54 -92 0 -13 11 -40 24 -60 21 -30 22
-38 10 -48 -11 -9 -14 -52 -14 -220 0 -201 -1 -209 -20 -209 -19 0 -20 8 -22
167 -3 166 -3 167 -26 173 l-24 5 21 19 c31 28 26 56 -17 97 -31 31 -44 37
-81 36 -30 0 -47 5 -53 17 -25 45 -102 39 -114 -10 -5 -21 -12 -23 -72 -26
l-67 -3 -3 -67 c-2 -49 -7 -68 -16 -68 -23 0 -26 -25 -26 -186 0 -147 -1 -154
-20 -154 -11 0 -20 -4 -20 -9 0 -4 32 -12 70 -15 l71 -7 21 -43 20 -43 -49
-47 c-58 -54 -106 -138 -122 -214 -25 -118 -6 -152 83 -152 52 0 54 -1 60 -32
22 -111 153 -179 259 -134 43 17 93 76 108 126 l12 40 249 0 c211 0 248 -2
248 -15 0 -18 31 -35 63 -35 19 0 31 -11 51 -44 17 -30 40 -51 69 -65 166 -80
337 89 254 251 -23 46 -24 48 -6 64 53 48 -19 112 -135 121 l-63 6 10 28 c10
26 4 44 -66 183 -42 85 -77 162 -77 170 0 9 11 16 28 18 22 2 28 8 30 35 2 24
11 37 33 50 25 15 29 23 27 53 l-3 35 -70 5 -70 5 -3 58 -3 57 -33 0 c-25 0
-35 5 -39 20 -11 41 -27 20 -27 -35 0 -55 16 -76 27 -35 3 11 14 20 24 20 16
0 19 -8 19 -45 0 -39 -3 -45 -20 -45 -12 0 -32 -12 -47 -26 -20 -20 -44 -28
-115 -40 -49 -8 -93 -12 -98 -9 -12 8 -133 176 -129 179 2 1 16 7 32 14 15 6
35 27 44 47 9 19 22 35 29 35 25 0 25 20 0 30 -14 5 -26 14 -26 20 0 6 -12 22
-26 35 -29 27 -81 32 -120 14z m94 -35 c33 -23 27 -34 -18 -34 l-40 0 0 -45
c0 -50 -8 -55 -35 -25 -57 63 23 153 93 104z m32 -72 c0 -12 -39 -52 -50 -52
-6 0 -10 14 -10 30 0 27 3 30 30 30 17 0 30 -4 30 -8z m-410 -96 l0 -81 -30
-1 -30 -1 0 78 c0 63 3 80 17 87 34 20 43 4 43 -82z m131 16 c5 -12 15 -22 24
-22 8 0 15 -6 15 -14 0 -22 -16 -28 -29 -12 -17 20 -58 28 -81 16 -18 -10 -20
-7 -20 23 0 32 1 33 42 32 33 -1 43 -5 49 -23z m-221 -17 c0 -24 -3 -25 -55
-25 -52 0 -55 1 -55 25 0 24 3 25 55 25 52 0 55 -1 55 -25z m481 -106 l74
-101 55 7 c30 4 60 8 65 8 6 1 11 -10 13 -24 3 -29 3 -29 -109 -44 l-46 -7
-81 110 c-77 103 -91 130 -75 145 17 17 36 0 104 -94z m-273 49 c7 -7 12 -18
12 -25 0 -11 -5 -11 -21 -2 -16 8 -28 8 -45 0 -27 -12 -29 -9 -14 20 12 21 50
25 68 7z m-208 -18 c0 -17 -3 -18 -24 -9 -18 9 -30 7 -55 -5 -31 -16 -31 -16
-31 9 0 24 3 25 55 25 48 0 55 -2 55 -20z m460 -199 c0 -53 -8 -61 -61 -61
l-29 0 0 117 0 117 45 -62 c39 -53 45 -68 45 -111z m480 89 l0 -61 -62 3 c-55
3 -63 5 -60 22 2 10 -2 32 -9 48 -16 39 -3 48 74 48 l57 0 0 -60z m58 43 c-5
-25 -28 -28 -28 -4 0 12 6 21 16 21 9 0 14 -7 12 -17z m-208 -61 c0 -16 -24
-32 -47 -32 -18 0 -23 6 -23 24 0 15 7 26 18 29 19 4 52 -9 52 -21z m-8 -254
c-4 -214 -10 -254 -44 -284 l-21 -19 6 37 c3 20 11 89 18 152 12 106 11 118
-4 134 -9 9 -68 31 -130 47 l-112 30 -3 50 c-3 49 -3 49 17 31 19 -17 25 -17
143 -1 68 9 125 19 127 21 2 2 5 4 6 4 1 0 -1 -91 -3 -202z m88 162 c0 -5 -9
-10 -20 -10 -11 0 -20 5 -20 10 0 6 9 10 20 10 11 0 20 -4 20 -10z m-37 -82
c4 -18 13 -85 22 -148 l17 -115 -36 -75 c-20 -41 -39 -74 -41 -73 -37 15 -38
20 -14 52 23 31 24 41 27 212 3 168 12 222 25 147z m132 -105 c46 -95 63 -143
58 -155 -4 -9 -30 -32 -57 -50 -58 -39 -111 -112 -127 -171 -6 -23 -16 -48
-21 -55 -8 -9 -65 -12 -224 -12 -207 0 -214 1 -214 20 0 19 7 20 198 20 177 0
201 2 215 18 8 9 38 62 65 118 l49 101 -22 151 c-21 145 -21 152 -3 152 13 0
35 -36 83 -137z m-496 103 c9 -8 63 -26 121 -41 58 -15 111 -33 117 -39 10 -9
10 -36 -2 -131 -8 -65 -15 -125 -15 -132 0 -7 -11 -13 -25 -13 -25 0 -25 1
-19 58 3 31 10 84 15 117 5 33 5 63 1 66 -4 4 -61 21 -127 39 -147 39 -165 46
-165 64 0 27 72 36 99 12z m-466 -98 c7 -48 -7 -54 -31 -14 -21 36 -20 46 9
46 11 0 18 -10 22 -32z m432 8 c47 -13 35 -14 -177 -15 -196 -1 -228 1 -228
14 0 13 26 15 178 15 120 0 193 -5 227 -14z m158 -37 l37 -10 -6 -57 c-4 -31
-12 -95 -18 -142 l-11 -85 -35 3 c-51 5 -96 37 -119 86 -38 78 -17 153 54 192
48 26 50 27 98 13z m-184 -56 c-50 -99 10 -232 119 -263 20 -5 43 -10 50 -10
6 0 12 -4 12 -10 0 -6 -41 -10 -103 -10 l-102 0 -19 53 c-24 69 -95 138 -166
162 -161 54 -329 -59 -347 -231 -6 -56 -15 -67 -32 -35 -15 27 5 133 36 195
14 28 48 72 75 98 41 39 53 46 68 38 26 -14 207 -13 216 1 12 20 -20 29 -106
29 -59 0 -80 3 -70 10 8 5 98 10 201 10 l187 0 -19 -37z m-188 -123 c76 -39
129 -124 129 -207 l0 -33 -229 0 c-258 0 -249 -3 -230 78 34 152 194 231 330
162z m960 -41 c27 -12 49 -27 49 -33 0 -7 -61 -58 -135 -114 -134 -101 -136
-102 -191 -102 -56 0 -77 16 -57 43 6 6 16 34 23 60 38 141 173 205 311 146z
m-489 -60 c2 -6 19 -14 38 -18 26 -5 35 -12 35 -26 0 -17 -8 -20 -58 -23 -69
-4 -85 6 -79 48 4 25 9 30 32 30 16 0 30 -5 32 -11z m458 -134 c12 -31 -1 -68
-32 -89 -31 -22 -52 -20 -84 7 l-26 23 53 41 c63 49 76 52 89 18z m-962 -51
c-5 -28 -53 -57 -81 -50 -30 7 -57 32 -57 52 0 11 16 14 71 14 60 0 70 -2 67
-16z"/>
</g>
</svg>
