<svg width="18" height="18" viewBox="0 0 18 18" fill="none" xmlns="http://www.w3.org/2000/svg">
<path d="M16.3375 7.42044L9.462 1.16977C9.33544 1.05471 9.17054 0.990961 8.9995 0.990967C8.82847 0.990973 8.66357 1.05473 8.53702 1.1698L1.66249 7.42044C1.59163 7.48488 1.535 7.56341 1.49626 7.65101C1.45751 7.7386 1.4375 7.83333 1.4375 7.92911V15.875C1.4375 16.0574 1.50993 16.2322 1.63886 16.3612C1.7678 16.4901 1.94266 16.5625 2.125 16.5625H15.875C16.0573 16.5625 16.2322 16.4901 16.3611 16.3612C16.4901 16.2322 16.5625 16.0574 16.5625 15.875V7.92914C16.5625 7.83335 16.5425 7.73862 16.5037 7.65101C16.465 7.56341 16.4084 7.48488 16.3375 7.42044Z" stroke="black" stroke-width="1.5" stroke-linecap="round" stroke-linejoin="round"/>
</svg>
