<svg width="22" height="22" viewBox="0 0 22 22" fill="none" xmlns="http://www.w3.org/2000/svg">
<path d="M17.1874 19.25H4.81177C4.62943 19.25 4.45456 19.1776 4.32563 19.0486C4.1967 18.9197 4.12427 18.7448 4.12427 18.5625V3.4375C4.12427 3.25516 4.1967 3.0803 4.32563 2.95136C4.45456 2.82243 4.62943 2.75 4.81177 2.75H13.0624L17.8749 7.5625V18.5625C17.8749 18.6528 17.8572 18.7422 17.8226 18.8256C17.7881 18.909 17.7374 18.9848 17.6736 19.0486C17.6097 19.1125 17.5339 19.1631 17.4505 19.1977C17.3671 19.2322 17.2777 19.25 17.1874 19.25Z" stroke="black" stroke-width="1.5" stroke-linecap="round" stroke-linejoin="round"/>
<path d="M13.0625 2.75V7.5625H17.8757" stroke="black" stroke-width="1.5" stroke-linecap="round" stroke-linejoin="round"/>
<path d="M8.25 11.6875H13.75" stroke="black" stroke-width="1.5" stroke-linecap="round" stroke-linejoin="round"/>
<path d="M8.25 14.4375H13.75" stroke="black" stroke-width="1.5" stroke-linecap="round" stroke-linejoin="round"/>
</svg>
