<svg width="20" height="14" viewBox="0 0 20 14" fill="none" xmlns="http://www.w3.org/2000/svg">
<path d="M14.7041 12.8814L18.625 7L14.7041 1.11864C14.6413 1.02447 14.5563 0.947254 14.4565 0.893849C14.3567 0.840443 14.2452 0.8125 14.1321 0.8125H1.4375C1.25516 0.8125 1.0803 0.884933 0.951364 1.01386C0.822433 1.1428 0.75 1.31766 0.75 1.5V12.5C0.75 12.6823 0.822433 12.8572 0.951364 12.9861C1.0803 13.1151 1.25516 13.1875 1.4375 13.1875H14.1321C14.2452 13.1875 14.3567 13.1596 14.4565 13.1061C14.5563 13.0527 14.6413 12.9755 14.7041 12.8814V12.8814Z" stroke="black" stroke-width="1.5" stroke-linecap="round" stroke-linejoin="round"/>
</svg>
