<svg xmlns="http://www.w3.org/2000/svg" width="44" height="43.999" viewBox="0 0 44 43.999">
  <g id="Group_9" data-name="Group 9" transform="translate(56.037 -294.119)">
    <ellipse id="Ellipse_1" data-name="Ellipse 1" cx="21.999" cy="22" rx="21.999" ry="22" transform="translate(-56.036 294.119)" fill="#fff"/>
    <g id="Group_3" data-name="Group 3" transform="translate(-56.037 294.119)">
      <path id="Path_50" data-name="Path 50" d="M-34.038,294.119a22.009,22.009,0,0,0-22,22,22.011,22.011,0,0,0,22,22,22.012,22.012,0,0,0,22-22A22.01,22.01,0,0,0-34.038,294.119Zm14.965,8.2a20.288,20.288,0,0,1,5.37,12.89h-1.823A18.48,18.48,0,0,0-20.368,303.6l.3-.3Zm-12.182,15.282,9.355,9.35a.911.911,0,0,1,0,1.288.911.911,0,0,1-1.288,0l-9.361-9.357a.911.911,0,0,1,.005-1.288.91.91,0,0,1,1.287.005Zm-.668-1.5a.912.912,0,0,1,.911-.911h4.449a.911.911,0,0,1,.911.911.911.911,0,0,1-.911.911h-4.451A.91.91,0,0,1-31.922,316.106Zm8.491.913a.911.911,0,0,1-.911-.911.911.911,0,0,1,.911-.911h5.68a.911.911,0,0,1,.911.911.911.911,0,0,1-.911.911Zm-10.606-21.254a20.288,20.288,0,0,1,13.786,5.381l-1.283,1.294a18.472,18.472,0,0,0-12.5-4.855,18.479,18.479,0,0,0-12.515,4.865l-.3-.3-.981-.991a20.288,20.288,0,0,1,13.8-5.389Zm0,18.168a.909.909,0,0,1-.643-.267.909.909,0,0,1-.266-.644V302.111a.908.908,0,0,1,.263-.645.908.908,0,0,1,.642-.269.907.907,0,0,1,.645.262.907.907,0,0,1,.269.642v10.923a.908.908,0,0,1-.266.643.908.908,0,0,1-.643.266Zm.911,16.122a.91.91,0,0,1-.911.909.912.912,0,0,1-.909-.913v-10.91a.911.911,0,0,1,.905-.916.91.91,0,0,1,.645.263.909.909,0,0,1,.269.642Zm-2.4-15.44a.91.91,0,0,1-1.287,0l-9.337-9.335a.912.912,0,0,1,0-1.289.911.911,0,0,1,1.287,0l9.334,9.331a.908.908,0,0,1,.268.644.908.908,0,0,1-.268.644ZM-49,329.913a20.289,20.289,0,0,1-5.391-13.794,20.3,20.3,0,0,1,5.381-13.786l1.3,1.283a18.472,18.472,0,0,0-4.855,12.5,18.471,18.471,0,0,0,4.864,12.513l-.3.3Zm14.963,6.56a20.285,20.285,0,0,1-13.786-5.381l1.283-1.3a18.469,18.469,0,0,0,12.5,4.855,18.47,18.47,0,0,0,12.515-4.865l.3.3.981.991a20.293,20.293,0,0,1-13.794,5.391Zm14.974-6.57-1.294-1.283a18.46,18.46,0,0,0,4.833-11.586H-13.7a20.282,20.282,0,0,1-5.359,12.87Z" transform="translate(56.037 -294.119)" fill="#bb8c46" fill-rule="evenodd"/>
    </g>
  </g>
</svg>
