<svg xmlns="http://www.w3.org/2000/svg" width="97.838" height="32.555" viewBox="0 0 97.838 32.555">
  <g id="Group_446" data-name="Group 446" transform="translate(-82.822 -46.308)">
    <path id="Path_918" data-name="Path 918" d="M87.3,0A16.277,16.277,0,1,1,70.991,16.249,16.272,16.272,0,0,1,87.3,0M97.507,27.334c-.272-.274-.53-.536-.789-.8-.163-.164-.133-.172-.309-.014a12.269,12.269,0,0,1-1.042.838,13.641,13.641,0,0,1-8.054,2.624,13.043,13.043,0,0,1-2.429-.212,13.7,13.7,0,0,1-5.48-2.28,15.148,15.148,0,0,1-1.252-.989c-.124-.108-.128-.106-.24,0-.2.2-.4.4-.6.6a.978.978,0,0,0-.215.241,15.047,15.047,0,0,0,20.406-.018M77.143,25.517c-.046-.056-.094-.118-.146-.177a13.289,13.289,0,0,1-1.323-1.762,13.7,13.7,0,0,1-1.915-9.625,13.688,13.688,0,0,1,1.788-4.781,14.333,14.333,0,0,1,1.473-2c.131-.15.13-.153-.012-.3q-.332-.332-.667-.661c-.145-.143-.146-.141-.286.015a14.982,14.982,0,0,0-3.836,9.6,15.234,15.234,0,0,0,.034,1.571,14.923,14.923,0,0,0,2.815,7.7A15.2,15.2,0,0,0,76.1,26.371c.061.068.112.105.191.023.276-.287.555-.572.85-.877M87.318,1.227c-.219,0-.438,0-.657,0a12.51,12.51,0,0,0-1.982.207,15,15,0,0,0-6.2,2.61A16.23,16.23,0,0,0,77.2,5.074c-.136.12-.136.124-.009.254.235.24.476.476.709.718.081.084.141.1.233.011.167-.154.341-.3.518-.441A13.652,13.652,0,0,1,87.1,2.559a13.209,13.209,0,0,1,2.592.213,13.578,13.578,0,0,1,5.442,2.247,13.147,13.147,0,0,1,1.29,1.016c.125.112.131.112.246,0,.245-.242.484-.49.73-.731.078-.077.089-.135,0-.209-.121-.1-.234-.207-.354-.308a14.878,14.878,0,0,0-9.728-3.558m1.616,15.953a.662.662,0,0,0-.67.391.637.637,0,0,0,.108.721c.04.048.087.09.131.134l6.727,6.717a1.571,1.571,0,0,0,.171.16.669.669,0,0,0,1.075-.515.746.746,0,0,0-.269-.573q-3.391-3.38-6.778-6.765c-.033-.033-.066-.067-.1-.1a.593.593,0,0,0-.4-.17M78.822,7.1a.683.683,0,0,0-.694.634.753.753,0,0,0,.269.6q3.383,3.373,6.763,6.75a1.582,1.582,0,0,0,.137.129.668.668,0,0,0,1.075-.406.732.732,0,0,0-.268-.685q-3.36-3.347-6.713-6.7c-.05-.05-.1-.1-.151-.148a.673.673,0,0,0-.418-.172m19.54-1.051c-.287.294-.555.567-.822.842-.119.122-.119.125,0,.262A13.36,13.36,0,0,1,99.25,9.533a13.545,13.545,0,0,1,1.689,5.226c.026.233.034.467.057.7.007.07.018.141.119.14.376,0,.751,0,1.127,0,.082,0,.109-.043.1-.118,0-.055,0-.11,0-.164a14.307,14.307,0,0,0-.411-2.682,14.947,14.947,0,0,0-2.746-5.626,11.105,11.105,0,0,0-.823-.958m3.982,11.222c0-.017,0-.063,0-.11,0-.207,0-.209-.2-.21q-.47,0-.94,0c-.2,0-.208,0-.216.21a11.366,11.366,0,0,1-.145,1.3A13.663,13.663,0,0,1,97.538,25.4c-.11.123-.11.127,0,.243.2.2.393.4.6.594.28.254.191.308.483-.025a14.989,14.989,0,0,0,3.125-5.639,15.235,15.235,0,0,0,.594-3.3M87.965,9.949h0q0-1.934,0-3.868a2.565,2.565,0,0,0,0-.258.671.671,0,0,0-.858-.564.683.683,0,0,0-.491.716q0,3.962,0,7.924a.954.954,0,0,0,.038.278.675.675,0,0,0,1.319-.242c0-1.328,0-2.657,0-3.986m0,12.62h0q0-1.934,0-3.868c0-.078,0-.156,0-.234a.65.65,0,0,0-.588-.624.66.66,0,0,0-.737.51,1.186,1.186,0,0,0-.029.279q0,3.915,0,7.83a1.173,1.173,0,0,0,.04.324.673.673,0,0,0,1.3-.044,1.419,1.419,0,0,0,.015-.28q0-1.946,0-3.891m9.282-5.622h1.879a2.521,2.521,0,0,0,.282-.005.674.674,0,0,0,.606-.51.646.646,0,0,0-.235-.691.712.712,0,0,0-.482-.148q-2.032,0-4.063,0c-.047,0-.094,0-.141,0a.672.672,0,0,0-.12,1.317,1.222,1.222,0,0,0,.325.034h1.949m-6.07,0c.508,0,1.016,0,1.525,0a1.08,1.08,0,0,0,.325-.038.673.673,0,0,0-.222-1.316c-1.079,0-2.158,0-3.237,0a1.087,1.087,0,0,0-.117,0,.674.674,0,0,0-.57.837.69.69,0,0,0,.725.511c.524,0,1.048,0,1.571,0" transform="translate(11.831 46.309)" fill="#bb8c47"/>
    <path id="Path_919" data-name="Path 919" d="M923.519,79.065a10.738,10.738,0,0,1-.866.821,4.534,4.534,0,0,1-2.577,1.02,4.6,4.6,0,0,1-3.768-1.392,5.061,5.061,0,0,1-1.264-2.325,7.9,7.9,0,0,1,.209-4.841,4.634,4.634,0,0,1,2.266-2.619,4.692,4.692,0,0,1,5.833,1.229.442.442,0,0,0,.137.144c.055-.066.026-.146.026-.216q0-2.441,0-4.881a.846.846,0,0,1,.734-.887.855.855,0,0,1,1,.782c0,.054,0,.109,0,.164q0,6.865,0,13.729a1.359,1.359,0,0,1-.028.326.875.875,0,0,1-.907.664.854.854,0,0,1-.8-.858c0-.287,0-.574,0-.861m0-3.964c0-.782,0-1.564,0-2.346a.551.551,0,0,0-.124-.365,4.159,4.159,0,0,0-2.636-1.576,3.294,3.294,0,0,0-2.644.607,3.7,3.7,0,0,0-1.31,2.008,5.92,5.92,0,0,0-.2,2.227,4.927,4.927,0,0,0,.605,2.027,3.21,3.21,0,0,0,1.925,1.548,3.636,3.636,0,0,0,1.742.07,4.117,4.117,0,0,0,2.5-1.494.6.6,0,0,0,.137-.407c-.006-.766,0-1.533,0-2.3" transform="translate(-749.295 -12.422)" fill="#bc8d47"/>
    <path id="Path_920" data-name="Path 920" d="M796.894,113.377a4.23,4.23,0,0,0,.914,2.408,3.683,3.683,0,0,0,2.484,1.37,4.8,4.8,0,0,0,3.56-.941.678.678,0,0,1,.92.028.725.725,0,0,1,.109.942,1.8,1.8,0,0,1-.659.587,5.529,5.529,0,0,1-1.234.507,7.948,7.948,0,0,1-2.147.355,5.414,5.414,0,0,1-5.563-4.132,6.341,6.341,0,0,1,.465-4.606,5.249,5.249,0,0,1,9.727.432,7.183,7.183,0,0,1,.432,1.962.992.992,0,0,1-1.032,1.069c-2.561-.016-5.121-.007-7.682-.006a.7.7,0,0,0-.294.025m3.634-1.293h3.451c.241,0,.239.028.227-.249a3.293,3.293,0,0,0-.1-.624,3.673,3.673,0,0,0-1.317-2.132,3.615,3.615,0,0,0-3.093-.628,3.787,3.787,0,0,0-2.806,3.53c-.006.071.021.1.09.1h3.545" transform="translate(-641.306 -50.131)" fill="#bc8d47"/>
    <path id="Path_921" data-name="Path 921" d="M548.865,112.741a6.348,6.348,0,0,1-1.081,3.647,5.077,5.077,0,0,1-3.532,2.177,5.729,5.729,0,0,1-3.022-.311,5.051,5.051,0,0,1-2.941-2.96,6.49,6.49,0,0,1,.218-5.518,4.993,4.993,0,0,1,3.773-2.763,5.683,5.683,0,0,1,3.421.4,5.231,5.231,0,0,1,2.839,3.268,6.994,6.994,0,0,1,.326,2.06m-9.255.028a5.144,5.144,0,0,0,.2,1.482,4.016,4.016,0,0,0,1.108,1.9,3.475,3.475,0,0,0,3.272.831,3.188,3.188,0,0,0,2.226-1.727,5.142,5.142,0,0,0,.062-4.845,3.258,3.258,0,0,0-2.668-1.905,3.392,3.392,0,0,0-3.37,1.454,4.745,4.745,0,0,0-.828,2.809" transform="translate(-409.235 -50.132)" fill="#bc8d47"/>
    <path id="Path_922" data-name="Path 922" d="M443.337,106.983a5.632,5.632,0,0,1,3.377,1.028,4.186,4.186,0,0,1,.368.291.688.688,0,0,1,.084.933.717.717,0,0,1-.93.162c-.073-.045-.139-.1-.21-.15a4.7,4.7,0,0,0-2.173-.818,4.038,4.038,0,0,0-1.6.105,2.1,2.1,0,0,0-1.022.594,1.413,1.413,0,0,0-.382,1.252,1.082,1.082,0,0,0,.483.694,3.447,3.447,0,0,0,1.022.461c.727.219,1.472.364,2.2.563a7.283,7.283,0,0,1,1.618.618,2.972,2.972,0,0,1,1.188,1.1,2.714,2.714,0,0,1,.352,1.133,3.133,3.133,0,0,1-2.084,3.34,5.785,5.785,0,0,1-1.9.39,7.271,7.271,0,0,1-2.55-.3,5.349,5.349,0,0,1-1.958-1.081.7.7,0,0,1-.209-.919.809.809,0,0,1,.933-.364,1.009,1.009,0,0,1,.329.175,5.119,5.119,0,0,0,2.552,1.049,4.077,4.077,0,0,0,1.9-.169,2.022,2.022,0,0,0,1-.709,1.661,1.661,0,0,0,.289-1.248,1.272,1.272,0,0,0-.6-.863,4.459,4.459,0,0,0-1.336-.558c-.722-.207-1.46-.349-2.179-.566a5.747,5.747,0,0,1-1.625-.716,2.535,2.535,0,0,1-1.125-2.56,2.971,2.971,0,0,1,1.812-2.4,5.224,5.224,0,0,1,2.371-.481" transform="translate(-320.061 -50.196)" fill="#bc8d47"/>
    <path id="Path_923" data-name="Path 923" d="M730.642,85.96q0-1.783,0-3.567c0-.055,0-.11,0-.164-.006-.168-.007-.174-.171-.176-.305,0-.611,0-.916,0a1.826,1.826,0,0,1-.3-.025.707.707,0,0,1-.584-.62.734.734,0,0,1,.408-.818.789.789,0,0,1,.342-.069q.517,0,1.034,0c.188,0,.191,0,.191-.2,0-.712.01-1.424,0-2.135a.88.88,0,0,1,1.244-.769.864.864,0,0,1,.495.816q0,.915,0,1.83c0,.07,0,.141,0,.211,0,.264-.017.245.237.246.47,0,.94,0,1.41,0a.7.7,0,0,1,.674.423.759.759,0,0,1-.078.82.774.774,0,0,1-.663.288c-.431,0-.862,0-1.292,0-.055,0-.11,0-.164,0-.09,0-.127.041-.124.128,0,.047,0,.094,0,.141q0,3.3,0,6.594a2.447,2.447,0,0,0,.052.582,1.075,1.075,0,0,0,1.374.866c.161-.034.318-.085.479-.113a.736.736,0,0,1,.879.781.684.684,0,0,1-.265.478,1.4,1.4,0,0,1-.539.276,4.054,4.054,0,0,1-2.019.082,2.017,2.017,0,0,1-1.6-1.6,3.677,3.677,0,0,1-.1-.906c0-1.134,0-2.268,0-3.4" transform="translate(-581.419 -23.449)" fill="#bc8d47"/>
    <path id="Path_924" data-name="Path 924" d="M665.249,109.826a9.192,9.192,0,0,1,.716-.793,4.334,4.334,0,0,1,1.393-.937,2.964,2.964,0,0,1,.82-.184.823.823,0,0,1,.81,1.183.894.894,0,0,1-.727.561c-.278.042-.559.059-.834.126a3.7,3.7,0,0,0-2.092,1.382.627.627,0,0,0-.129.411q.005,3.4,0,6.8a1.578,1.578,0,0,1-.031.349.866.866,0,0,1-.907.661.838.838,0,0,1-.8-.832c0-.055,0-.109,0-.164q0-4.763,0-9.525a.832.832,0,0,1,.592-.857.855.855,0,0,1,1.14.816c.008.281,0,.563,0,.845a.193.193,0,0,0,.039.156" transform="translate(-522.62 -51.031)" fill="#bc8d47"/>
    <path id="Path_925" data-name="Path 925" d="M1040.92,199.042a1.457,1.457,0,0,1-1.5-1.478,1.473,1.473,0,0,1,1.491-1.491,1.5,1.5,0,0,1,1.49,1.471,1.478,1.478,0,0,1-1.482,1.5" transform="translate(-861.742 -130.559)" fill="#bc8d47"/>
  </g>
</svg>
